<svg width="14" height="13" viewBox="0 0 14 13" fill="none" xmlns="http://www.w3.org/2000/svg">
<path d="M7.61869 0.312585C7.4546 0.148547 7.23208 0.0563965 7.00006 0.0563965C6.76805 0.0563965 6.54553 0.148547 6.38144 0.312585L0.565314 6.12783C0.524637 6.16851 0.492371 6.2168 0.470356 6.26995C0.448342 6.3231 0.437012 6.38006 0.437012 6.43758C0.437012 6.49511 0.448342 6.55207 0.470356 6.60522C0.492371 6.65837 0.524637 6.70666 0.565314 6.74733C0.647465 6.82949 0.758886 6.87564 0.875064 6.87564C0.93259 6.87564 0.989553 6.86431 1.0427 6.84229C1.09585 6.82028 1.14414 6.78801 1.18481 6.74733L7.00006 0.93121L12.8153 6.74733C12.8975 6.82949 13.0089 6.87564 13.1251 6.87564C13.2412 6.87564 13.3527 6.82949 13.4348 6.74733C13.517 6.66518 13.5631 6.55376 13.5631 6.43758C13.5631 6.32141 13.517 6.20999 13.4348 6.12783L11.3751 4.06896V1.18758C11.3751 1.07155 11.329 0.960273 11.2469 0.878226C11.1649 0.796178 11.0536 0.750085 10.9376 0.750085H10.0626C9.94653 0.750085 9.83525 0.796178 9.7532 0.878226C9.67116 0.960273 9.62506 1.07155 9.62506 1.18758V2.31896L7.61869 0.312585Z" fill="#2C2C2C"/>
<path d="M7 1.8811L12.25 7.1311V10.8122C12.25 11.1603 12.1117 11.4942 11.8656 11.7403C11.6194 11.9864 11.2856 12.1247 10.9375 12.1247H3.0625C2.7144 12.1247 2.38056 11.9864 2.13442 11.7403C1.88828 11.4942 1.75 11.1603 1.75 10.8122V7.1311L7 1.8811Z" fill="#2C2C2C"/>
</svg>
