<svg width="16" height="16" viewBox="0 0 16 16" fill="none" xmlns="http://www.w3.org/2000/svg">
<path d="M3.3335 13.3333C3.3335 13.687 3.47397 14.0261 3.72402 14.2761C3.97407 14.5262 4.31321 14.6667 4.66683 14.6667C5.02045 14.6667 5.35959 14.5262 5.60964 14.2761C5.85969 14.0261 6.00016 13.687 6.00016 13.3333C6.00016 12.9797 5.85969 12.6406 5.60964 12.3905C5.35959 12.1405 5.02045 12 4.66683 12C4.31321 12 3.97407 12.1405 3.72402 12.3905C3.47397 12.6406 3.3335 12.9797 3.3335 13.3333ZM10.0002 13.3333C10.0002 13.687 10.1406 14.0261 10.3907 14.2761C10.6407 14.5262 10.9799 14.6667 11.3335 14.6667C11.6871 14.6667 12.0263 14.5262 12.2763 14.2761C12.5264 14.0261 12.6668 13.687 12.6668 13.3333C12.6668 12.9797 12.5264 12.6406 12.2763 12.3905C12.0263 12.1405 11.6871 12 11.3335 12C10.9799 12 10.6407 12.1405 10.3907 12.3905C10.1406 12.6406 10.0002 12.9797 10.0002 13.3333Z" stroke="#2C2C2C" stroke-linecap="round" stroke-linejoin="round"/>
<path d="M3.33333 13.3333H2V9.33325M2 9.33325L3.33333 5.99992H9.33333L12 9.33325M2 9.33325H12M12 9.33325H12.6667C13.0203 9.33325 13.3594 9.47373 13.6095 9.72378C13.8595 9.97383 14 10.313 14 10.6666V13.3333H12.6667M10 13.3333H6M8 9.33325V5.99992M2 3.99992L8 1.33325L14 3.99992" stroke="#2C2C2C" stroke-linecap="round" stroke-linejoin="round"/>
</svg>
