<svg width="11" height="20" viewBox="0 0 11 20" fill="none" xmlns="http://www.w3.org/2000/svg">
<path d="M8.70407 9.99991L0.212072 1.27291C0.142157 1.20258 0.0868826 1.11908 0.049448 1.02725C0.0120134 0.935419 -0.00683784 0.837075 -0.00601387 0.73791C-0.0051899 0.638745 0.0152922 0.540728 0.0542469 0.449531C0.0932016 0.358334 0.149856 0.275767 0.22093 0.20661C0.292005 0.137452 0.376089 0.0830768 0.468317 0.04663C0.560545 0.0101833 0.659087 -0.00761119 0.758238 -0.00572347C0.857388 -0.00383576 0.95518 0.0176966 1.04595 0.0576276C1.13673 0.0975585 1.21868 0.155095 1.28707 0.226908L10.2871 9.47691C10.4233 9.61692 10.4995 9.80456 10.4995 9.99991C10.4995 10.1953 10.4233 10.3829 10.2871 10.5229L1.28707 19.7729C1.21868 19.8447 1.13673 19.9023 1.04595 19.9422C0.95518 19.9821 0.857388 20.0037 0.758238 20.0055C0.659087 20.0074 0.560545 19.9896 0.468317 19.9532C0.376089 19.9167 0.292005 19.8624 0.22093 19.7932C0.149856 19.7241 0.0932016 19.6415 0.0542469 19.5503C0.0152922 19.4591 -0.0051899 19.3611 -0.00601387 19.2619C-0.00683784 19.1627 0.0120134 19.0644 0.049448 18.9726C0.0868826 18.8807 0.142157 18.7972 0.212072 18.7269L8.70407 9.99991Z" fill="black"/>
</svg>
