<svg width="11" height="20" viewBox="0 0 11 20" fill="none" xmlns="http://www.w3.org/2000/svg">
<path d="M2.29593 9.99991L10.7879 1.27291C10.8578 1.20258 10.9131 1.11908 10.9506 1.02725C10.988 0.935419 11.0068 0.837075 11.006 0.73791C11.0052 0.638745 10.9847 0.540728 10.9458 0.449531C10.9068 0.358334 10.8501 0.275767 10.7791 0.20661C10.708 0.137452 10.6239 0.0830768 10.5317 0.04663C10.4395 0.0101833 10.3409 -0.00761119 10.2418 -0.00572347C10.1426 -0.00383576 10.0448 0.0176966 9.95405 0.0576276C9.86327 0.0975585 9.78132 0.155095 9.71293 0.226908L0.712928 9.47691C0.576706 9.61692 0.500488 9.80456 0.500488 9.99991C0.500488 10.1953 0.576706 10.3829 0.712928 10.5229L9.71293 19.7729C9.78132 19.8447 9.86327 19.9023 9.95405 19.9422C10.0448 19.9821 10.1426 20.0037 10.2418 20.0055C10.3409 20.0074 10.4395 19.9896 10.5317 19.9532C10.6239 19.9167 10.708 19.8624 10.7791 19.7932C10.8501 19.7241 10.9068 19.6415 10.9458 19.5503C10.9847 19.4591 11.0052 19.3611 11.006 19.2619C11.0068 19.1627 10.988 19.0644 10.9506 18.9726C10.9131 18.8807 10.8578 18.7972 10.7879 18.7269L2.29593 9.99991Z" fill="black"/>
</svg>
