<svg width="16" height="16" viewBox="0 0 16 16" fill="none" xmlns="http://www.w3.org/2000/svg">
<path d="M5.4002 8.00005C6.08976 8.00005 6.75108 7.72612 7.23867 7.23853C7.72627 6.75093 8.0002 6.08961 8.0002 5.40005C8.0002 4.71049 7.72627 4.04917 7.23867 3.56157C6.75108 3.07398 6.08976 2.80005 5.4002 2.80005C4.71063 2.80005 4.04931 3.07398 3.56172 3.56157C3.07412 4.04917 2.8002 4.71049 2.8002 5.40005C2.8002 6.08961 3.07412 6.75093 3.56172 7.23853C4.04931 7.72612 4.71063 8.00005 5.4002 8.00005ZM9.9498 12.116C10.3738 12.2896 10.913 12.4 11.5994 12.4C14.7994 12.4 14.7994 10 14.7994 10C14.7994 9.68193 14.6731 9.37682 14.4482 9.1518C14.2233 8.92678 13.9183 8.80026 13.6002 8.80005H9.8978C10.2122 9.18085 10.401 9.66805 10.401 10.2V10.4848C10.3993 10.5522 10.3948 10.6195 10.3874 10.6864C10.3329 11.1862 10.1839 11.6712 9.9498 12.116ZM13.6002 6.00005C13.6002 6.53048 13.3895 7.03919 13.0144 7.41426C12.6393 7.78934 12.1306 8.00005 11.6002 8.00005C11.0698 8.00005 10.5611 7.78934 10.186 7.41426C9.81091 7.03919 9.6002 6.53048 9.6002 6.00005C9.6002 5.46962 9.81091 4.96091 10.186 4.58584C10.5611 4.21076 11.0698 4.00005 11.6002 4.00005C12.1306 4.00005 12.6393 4.21076 13.0144 4.58584C13.3895 4.96091 13.6002 5.46962 13.6002 6.00005ZM1.2002 10.4C1.2002 9.9757 1.36877 9.56874 1.66882 9.26868C1.96888 8.96862 2.37585 8.80005 2.8002 8.80005H8.0002C8.42454 8.80005 8.83151 8.96862 9.13157 9.26868C9.43162 9.56874 9.6002 9.9757 9.6002 10.4C9.6002 10.4 9.6002 13.6 5.4002 13.6C1.2002 13.6 1.2002 10.4 1.2002 10.4Z" fill="#2C2C2C"/>
</svg>
