<svg width="21" height="21" viewBox="0 0 21 21" fill="none" xmlns="http://www.w3.org/2000/svg">
<path d="M13.583 2.50475L6.05892 5.00445C1.00119 6.69591 1.00119 9.45391 6.05892 11.137L8.29198 11.8786L9.03356 14.1117C10.7167 19.1694 13.483 19.1694 15.1662 14.1117L17.6742 6.59592C18.7907 3.22133 16.9576 1.37988 13.583 2.50475ZM13.8496 6.98754L10.6834 10.1705C10.5584 10.2955 10.4001 10.3538 10.2417 10.3538C10.0834 10.3538 9.92512 10.2955 9.80014 10.1705C9.5585 9.92885 9.5585 9.5289 9.80014 9.28727L12.9664 6.10432C13.2081 5.86268 13.608 5.86268 13.8496 6.10432C14.0913 6.34595 14.0913 6.7459 13.8496 6.98754Z" fill="#2C2C2C"/>
</svg>
