<svg width="26" height="25" viewBox="0 0 26 25" fill="none" xmlns="http://www.w3.org/2000/svg">
<path d="M23.9376 10.9376C23.9361 9.48766 23.3594 8.09756 22.3342 7.07231C21.3089 6.04706 19.9188 5.47039 18.4689 5.46884C18.296 5.46884 18.1232 5.4786 17.9523 5.49423C17.5113 4.5531 16.8113 3.7571 15.9343 3.19948C15.0572 2.64186 14.0395 2.3457 13.0001 2.3457C11.9608 2.3457 10.943 2.64186 10.066 3.19948C9.18894 3.7571 8.48894 4.5531 8.048 5.49423C7.8771 5.4786 7.70425 5.46884 7.53139 5.46884C6.28997 5.46914 5.08559 5.8918 4.11623 6.66736C3.14688 7.44291 2.47023 8.5252 2.19754 9.73631C1.92485 10.9474 2.07233 12.2153 2.61574 13.3314C3.15915 14.4476 4.06615 15.3457 5.18765 15.878V20.3126C5.18765 20.727 5.35226 21.1244 5.64529 21.4174C5.93832 21.7105 6.33574 21.8751 6.75014 21.8751H19.2501C19.6645 21.8751 20.062 21.7105 20.355 21.4174C20.648 21.1244 20.8126 20.727 20.8126 20.3126V15.878C21.7469 15.4337 22.5363 14.7339 23.0893 13.8595C23.6423 12.9852 23.9365 11.9721 23.9376 10.9376ZM19.2501 20.3126H6.75014V16.3497C7.00885 16.3874 7.26995 16.4063 7.53139 16.4063H18.4689C18.7303 16.4063 18.9914 16.3874 19.2501 16.3497V20.3126ZM18.4689 14.8438H17.1261L17.6642 12.6895C17.7105 12.49 17.6765 12.2802 17.5696 12.1054C17.4627 11.9306 17.2914 11.8048 17.0926 11.7552C16.8939 11.7055 16.6835 11.7358 16.507 11.8397C16.3304 11.9436 16.2017 12.1127 16.1486 12.3106L15.5148 14.8438H13.7814V12.5001C13.7814 12.2929 13.6991 12.0942 13.5526 11.9477C13.4061 11.8011 13.2073 11.7188 13.0001 11.7188C12.7929 11.7188 12.5942 11.8011 12.4477 11.9477C12.3012 12.0942 12.2189 12.2929 12.2189 12.5001V14.8438H10.4855L9.85171 12.3106C9.82828 12.2096 9.78497 12.1142 9.72429 12.0301C9.66362 11.946 9.5868 11.8748 9.49832 11.8206C9.40984 11.7665 9.31147 11.7306 9.20894 11.7149C9.10642 11.6991 9.00179 11.704 8.90117 11.7292C8.80054 11.7543 8.70593 11.7993 8.62286 11.8614C8.53979 11.9235 8.46991 12.0015 8.41731 12.0909C8.36471 12.1803 8.33044 12.2793 8.31649 12.3821C8.30255 12.4848 8.30921 12.5894 8.33608 12.6895L8.87417 14.8438H7.53139C6.49539 14.8438 5.50182 14.4323 4.76926 13.6997C4.0367 12.9672 3.62515 11.9736 3.62515 10.9376C3.62515 9.90158 4.0367 8.90801 4.76926 8.17545C5.50182 7.44289 6.49539 7.03134 7.53139 7.03134H7.58804C7.55017 7.29003 7.53124 7.55114 7.53139 7.81259C7.53139 8.01979 7.61371 8.2185 7.76022 8.36501C7.90673 8.51153 8.10544 8.59384 8.31264 8.59384C8.51985 8.59384 8.71856 8.51153 8.86507 8.36501C9.01159 8.2185 9.0939 8.01979 9.0939 7.81259C9.0939 6.77658 9.50545 5.78301 10.238 5.05045C10.9706 4.31789 11.9641 3.90634 13.0001 3.90634C14.0361 3.90634 15.0297 4.31789 15.7623 5.05045C16.4948 5.78301 16.9064 6.77658 16.9064 7.81259C16.9064 8.01979 16.9887 8.2185 17.1352 8.36501C17.2817 8.51153 17.4804 8.59384 17.6876 8.59384C17.8948 8.59384 18.0936 8.51153 18.2401 8.36501C18.3866 8.2185 18.4689 8.01979 18.4689 7.81259C18.4691 7.55114 18.4501 7.29003 18.4123 7.03134H18.4689C19.5049 7.03134 20.4985 7.44289 21.231 8.17545C21.9636 8.90801 22.3751 9.90158 22.3751 10.9376C22.3751 11.9736 21.9636 12.9672 21.231 13.6997C20.4985 14.4323 19.5049 14.8438 18.4689 14.8438Z" fill="#D1D1D6"/>
</svg>
