<svg width="17" height="16" viewBox="0 0 17 16" fill="none" xmlns="http://www.w3.org/2000/svg">
<path d="M5.27751 2H3.94417C3.59055 2 3.25141 2.14048 3.00136 2.39052C2.75132 2.64057 2.61084 2.97971 2.61084 3.33333V4.66667M11.9442 2H13.2775C13.6311 2 13.9703 2.14048 14.2203 2.39052C14.4704 2.64057 14.6108 2.97971 14.6108 3.33333V4.66667M11.2775 5.33333V6.66667M5.94417 5.33333V6.66667M6.61084 10.6667C6.61084 10.6667 7.27751 11.3333 8.61084 11.3333C9.94417 11.3333 10.6108 10.6667 10.6108 10.6667M8.61084 5.33333V8.66667H7.94417M5.27751 14H3.94417C3.59055 14 3.25141 13.8595 3.00136 13.6095C2.75132 13.3594 2.61084 13.0203 2.61084 12.6667V11.3333M11.9442 14H13.2775C13.6311 14 13.9703 13.8595 14.2203 13.6095C14.4704 13.3594 14.6108 13.0203 14.6108 12.6667V11.3333" stroke="#292D50" stroke-linecap="round" stroke-linejoin="round"/>
</svg>
