<svg width="24" height="24" viewBox="0 0 24 24" fill="none" xmlns="http://www.w3.org/2000/svg">
<path d="M11.5715 1.71436C6.22794 1.71436 1.71436 6.22794 1.71436 11.5715C1.71436 16.9151 6.22794 21.4286 11.5715 21.4286C16.9151 21.4286 21.4286 16.9151 21.4286 11.5715C21.4286 6.22794 16.9151 1.71436 11.5715 1.71436ZM11.5715 6.64293C13.2738 6.64293 14.5286 7.89676 14.5286 9.60007C14.5286 11.3034 13.2738 12.5572 11.5715 12.5572C9.87016 12.5572 8.61436 11.3034 8.61436 9.60007C8.61436 7.89676 9.87016 6.64293 11.5715 6.64293ZM6.53844 16.2753C7.42263 14.9742 8.89726 14.1068 10.5858 14.1068H12.5572C14.2467 14.1068 15.7204 14.9742 16.6046 16.2753C15.3448 17.6238 13.5577 18.4715 11.5715 18.4715C9.58528 18.4715 7.79818 17.6238 6.53844 16.2753Z" fill="#D1D1D6"/>
</svg>
