<svg width="20" height="17" viewBox="0 0 20 17" fill="none" xmlns="http://www.w3.org/2000/svg">
<path d="M3 8.5V0.5M17 16.5V13.5M3 16.5V12.5M17 9.5V0.5M10 3.5V0.5M10 16.5V7.5" stroke="#2C2C2C" stroke-linecap="round"/>
<path d="M3 12.5C4.10457 12.5 5 11.6046 5 10.5C5 9.39543 4.10457 8.5 3 8.5C1.89543 8.5 1 9.39543 1 10.5C1 11.6046 1.89543 12.5 3 12.5Z" stroke="#2C2C2C" stroke-linecap="round"/>
<path d="M10 7.5C11.1046 7.5 12 6.60457 12 5.5C12 4.39543 11.1046 3.5 10 3.5C8.89543 3.5 8 4.39543 8 5.5C8 6.60457 8.89543 7.5 10 7.5Z" stroke="#2C2C2C" stroke-linecap="round"/>
<path d="M17 13.5C18.1046 13.5 19 12.6046 19 11.5C19 10.3954 18.1046 9.5 17 9.5C15.8954 9.5 15 10.3954 15 11.5C15 12.6046 15.8954 13.5 17 13.5Z" stroke="#2C2C2C" stroke-linecap="round"/>
</svg>
