<svg width="39" height="39" viewBox="0 0 39 39" fill="none" xmlns="http://www.w3.org/2000/svg">
<path d="M19.5 20.8147C25.7117 20.8147 32.0856 24.8912 32.4985 33.0808C32.5144 33.3965 32.4054 33.7057 32.1957 33.9404C31.9859 34.175 31.6924 34.3161 31.3797 34.3326C28.1021 34.5012 12.9228 34.6045 7.62189 34.3326C7.30887 34.3165 7.01499 34.1756 6.80488 33.9409C6.59477 33.7061 6.48565 33.3968 6.50152 33.0808C6.91437 24.8928 13.2883 20.8147 19.5 20.8147ZM19.5 6.5C17.9328 6.5 16.4298 7.1284 15.3216 8.24695C14.2134 9.3655 13.5909 10.8826 13.5909 12.4645C13.5909 14.0463 14.2134 15.5634 15.3216 16.682C16.4298 17.8005 17.9328 18.4289 19.5 18.4289C21.0672 18.4289 22.5702 17.8005 23.6784 16.682C24.7866 15.5634 25.4091 14.0463 25.4091 12.4645C25.4091 10.8826 24.7866 9.3655 23.6784 8.24695C22.5702 7.1284 21.0672 6.5 19.5 6.5Z" fill="#FBC036"/>
</svg>
