<svg width="30" height="30" viewBox="0 0 30 30" fill="none" xmlns="http://www.w3.org/2000/svg">
<path d="M22.1377 2.5H20.9502C20.4627 2.5 20.0627 2.9 20.0627 3.3875C20.0627 3.8875 20.4627 4.2875 20.9502 4.2875H22.1377C24.2752 4.2875 26.0127 6.025 26.0127 8.15V15.5C25.5627 15.2625 25.0627 15.1375 24.5252 15.1375H19.7627C17.9627 15.1375 16.4877 16.6 16.4877 18.4125V20.3625H13.5127V18.4125C13.5127 16.6 12.0377 15.1375 10.2377 15.1375H5.4752C4.9377 15.1375 4.4377 15.2625 3.9877 15.5V8.15C3.9877 6.025 5.72519 4.2875 7.86269 4.2875H9.05019C9.53769 4.2875 9.93769 3.8875 9.93769 3.3875C9.93769 2.9 9.53769 2.5 9.05019 2.5H7.86269C4.73769 2.5 2.2002 5.0375 2.2002 8.15V18.4125V24.225C2.2002 26.0375 3.6752 27.5 5.4752 27.5H10.2377C12.0377 27.5 13.5127 26.0375 13.5127 24.225V22.1375H16.4877V24.225C16.4877 26.0375 17.9627 27.5 19.7627 27.5H24.5252C26.3252 27.5 27.8002 26.0375 27.8002 24.225V18.4125V8.15C27.8002 5.0375 25.2627 2.5 22.1377 2.5Z" fill="#780000"/>
</svg>
