<svg width="23" height="23" viewBox="0 0 23 23" fill="none" xmlns="http://www.w3.org/2000/svg">
<g clip-path="url(#clip0_79_3243)">
<path d="M19.695 2.89399C18.8613 2.06024 17.6825 1.73441 16.5421 2.02191L7.15043 4.36982C5.56918 4.76274 4.3521 5.98941 3.95918 7.56107L1.61126 16.9623C1.32376 18.1027 1.6496 19.2815 2.48335 20.1152C3.11585 20.7382 3.9496 21.0832 4.8121 21.0832C5.08043 21.0832 5.35835 21.0544 5.62668 20.9777L15.0279 18.6298C16.5996 18.2369 17.8263 17.0198 18.2192 15.4386L20.5671 6.03732C20.8546 4.89691 20.5288 3.71816 19.695 2.89399ZM11.0892 15.2182C9.03835 15.2182 7.37085 13.5507 7.37085 11.4998C7.37085 9.44899 9.03835 7.78149 11.0892 7.78149C13.14 7.78149 14.8075 9.44899 14.8075 11.4998C14.8075 13.5507 13.14 15.2182 11.0892 15.2182Z" fill="#D1D1D6"/>
</g>
<defs>
<clipPath id="clip0_79_3243">
<rect width="23" height="23" fill="white"/>
</clipPath>
</defs>
</svg>
