<svg width="26" height="25" viewBox="0 0 26 25" fill="none" xmlns="http://www.w3.org/2000/svg">
<g opacity="0.5">
<path d="M13.1202 2.08008C7.38566 2.08008 2.72021 6.74552 2.72021 12.4801C2.72021 18.2146 7.38566 22.8801 13.1202 22.8801C18.8548 22.8801 23.5202 18.2146 23.5202 12.4801C23.5202 6.74552 18.8548 2.08008 13.1202 2.08008ZM13.1202 20.8001C8.53278 20.8001 4.80022 17.0675 4.80022 12.4801C4.80022 7.89264 8.53278 4.16008 13.1202 4.16008C17.7077 4.16008 21.4402 7.89264 21.4402 12.4801C21.4402 17.0675 17.7077 20.8001 13.1202 20.8001Z" fill="#A7AFBD"/>
<path d="M16.062 15.4213C15.6819 15.8003 15.2329 16.1031 14.7391 16.3137C13.8503 16.6889 12.8586 16.7437 11.9338 16.4686C11.009 16.1936 10.2084 15.6057 9.66914 14.8057L7.94482 15.9694C8.39456 16.6331 8.96672 17.2049 9.63066 17.6542C10.3063 18.1111 11.0654 18.4302 11.8646 18.5933C12.6933 18.7624 13.5475 18.7624 14.3762 18.5933C15.1753 18.43 15.9343 18.1109 16.6101 17.6542C16.9356 17.4337 17.2466 17.1779 17.5315 16.894C17.8144 16.6121 18.0723 16.3001 18.2949 15.9694L16.5706 14.8057C16.4211 15.0267 16.2508 15.2328 16.062 15.4213Z" fill="#A7AFBD"/>
<path d="M16.7529 12.4653C17.6105 12.4653 18.3056 11.7701 18.3056 10.9126C18.3056 10.055 17.6105 9.35986 16.7529 9.35986C15.8954 9.35986 15.2002 10.055 15.2002 10.9126C15.2002 11.7701 15.8954 12.4653 16.7529 12.4653Z" fill="#A7AFBD"/>
<path d="M9.47992 12.4799C10.3415 12.4799 11.0399 11.7814 11.0399 10.9199C11.0399 10.0583 10.3415 9.35986 9.47992 9.35986C8.61836 9.35986 7.91992 10.0583 7.91992 10.9199C7.91992 11.7814 8.61836 12.4799 9.47992 12.4799Z" fill="#A7AFBD"/>
</g>
</svg>
