<svg width="26" height="25" viewBox="0 0 26 25" fill="none" xmlns="http://www.w3.org/2000/svg">
<g opacity="0.5">
<path d="M17.3199 6.24004V18.2C17.3199 20.4984 15.4583 22.36 13.1599 22.36C10.8615 22.36 8.99994 20.4984 8.99994 18.2V5.20004C8.99994 4.51048 9.27387 3.84916 9.76146 3.36156C10.2491 2.87397 10.9104 2.60004 11.5999 2.60004C12.2895 2.60004 12.9508 2.87397 13.4384 3.36156C13.926 3.84916 14.1999 4.51048 14.1999 5.20004V16.12C14.1999 16.692 13.7319 17.16 13.1599 17.16C12.5879 17.16 12.1199 16.692 12.1199 16.12V6.24004H10.5599V16.12C10.5599 16.8096 10.8339 17.4709 11.3215 17.9585C11.8091 18.4461 12.4704 18.72 13.1599 18.72C13.8495 18.72 14.5108 18.4461 14.9984 17.9585C15.486 17.4709 15.7599 16.8096 15.7599 16.12V5.20004C15.7599 2.90164 13.8983 1.04004 11.5999 1.04004C9.30154 1.04004 7.43994 2.90164 7.43994 5.20004V18.2C7.43994 21.3616 9.99834 23.92 13.1599 23.92C16.3215 23.92 18.8799 21.3616 18.8799 18.2V6.24004H17.3199Z" fill="#BEBEBE"/>
</g>
</svg>
