<svg width="22" height="21" viewBox="0 0 22 21" fill="none" xmlns="http://www.w3.org/2000/svg">
<path d="M3.40288 19.9011H18.0651C18.4187 19.9011 18.7119 19.6079 18.7119 19.2543C18.7119 18.9007 18.4187 18.6074 18.0651 18.6074H3.40288C3.04926 18.6074 2.75602 18.9007 2.75602 19.2543C2.75602 19.6079 3.04926 19.9011 3.40288 19.9011Z" fill="#FBC036"/>
<path d="M4.69658 16.0201C4.86045 16.0201 5.02432 15.9597 5.15369 15.8304L17.2284 3.75563C17.4785 3.50551 17.4785 3.09152 17.2284 2.8414C16.9783 2.59128 16.5643 2.59128 16.3142 2.8414L4.23947 14.9161C3.98935 15.1662 3.98935 15.5802 4.23947 15.8304C4.36884 15.9597 4.53271 16.0201 4.69658 16.0201Z" fill="#FBC036"/>
<path d="M16.7711 12.8028C17.1247 12.8028 17.418 12.5095 17.418 12.1559V3.29823C17.418 2.94461 17.1247 2.65137 16.7711 2.65137H7.91343C7.55981 2.65137 7.26657 2.94461 7.26657 3.29823C7.26657 3.65185 7.55981 3.94509 7.91343 3.94509H16.1242V12.1559C16.1242 12.5095 16.4175 12.8028 16.7711 12.8028Z" fill="#FBC036"/>
</svg>
