<svg width="24" height="24" viewBox="0 0 24 24" fill="none" xmlns="http://www.w3.org/2000/svg">
<path d="M4.5 13.5C4.71094 13.5 4.90625 13.5391 5.08594 13.6172C5.26562 13.6953 5.42188 13.8008 5.55469 13.9336C5.6875 14.0664 5.79688 14.2266 5.88281 14.4141C5.96875 14.6016 6.00781 14.7969 6 15C6 15.2109 5.96094 15.4062 5.88281 15.5859C5.80469 15.7656 5.69922 15.9219 5.56641 16.0547C5.43359 16.1875 5.27344 16.2969 5.08594 16.3828C4.89844 16.4688 4.70312 16.5078 4.5 16.5C4.28906 16.5 4.09375 16.4609 3.91406 16.3828C3.73438 16.3047 3.57812 16.1992 3.44531 16.0664C3.3125 15.9336 3.20313 15.7734 3.11719 15.5859C3.03125 15.3984 2.99219 15.2031 3 15C3 14.7891 3.03906 14.5938 3.11719 14.4141C3.19531 14.2344 3.30078 14.0781 3.43359 13.9453C3.56641 13.8125 3.72656 13.7031 3.91406 13.6172C4.10156 13.5312 4.29688 13.4922 4.5 13.5ZM19.5 13.5C19.7109 13.5 19.9062 13.5391 20.0859 13.6172C20.2656 13.6953 20.4219 13.8008 20.5547 13.9336C20.6875 14.0664 20.7969 14.2266 20.8828 14.4141C20.9688 14.6016 21.0078 14.7969 21 15C21 15.2109 20.9609 15.4062 20.8828 15.5859C20.8047 15.7656 20.6992 15.9219 20.5664 16.0547C20.4336 16.1875 20.2734 16.2969 20.0859 16.3828C19.8984 16.4688 19.7031 16.5078 19.5 16.5C19.2891 16.5 19.0938 16.4609 18.9141 16.3828C18.7344 16.3047 18.5781 16.1992 18.4453 16.0664C18.3125 15.9336 18.2031 15.7734 18.1172 15.5859C18.0312 15.3984 17.9922 15.2031 18 15C18 14.7891 18.0391 14.5938 18.1172 14.4141C18.1953 14.2344 18.3008 14.0781 18.4336 13.9453C18.5664 13.8125 18.7266 13.7031 18.9141 13.6172C19.1016 13.5312 19.2969 13.4922 19.5 13.5ZM23.5664 10.5L22.793 11.2617C22.8086 11.3008 22.8477 11.418 22.9102 11.6133C22.9727 11.8086 23.0469 12.0391 23.1328 12.3047C23.2188 12.5703 23.3164 12.8555 23.4258 13.1602C23.5352 13.4648 23.6289 13.7422 23.707 13.9922C23.7852 14.2422 23.8555 14.4531 23.918 14.625C23.9805 14.7969 24.0078 14.8828 24 14.8828V22.5C24 22.7109 23.9609 22.9062 23.8828 23.0859C23.8047 23.2656 23.6992 23.4219 23.5664 23.5547C23.4336 23.6875 23.2734 23.7969 23.0859 23.8828C22.8984 23.9688 22.7031 24.0078 22.5 24H21C20.7891 24 20.5938 23.9609 20.4141 23.8828C20.2344 23.8047 20.0781 23.6992 19.9453 23.5664C19.8125 23.4336 19.7031 23.2734 19.6172 23.0859C19.5312 22.8984 19.4922 22.7031 19.5 22.5H4.5C4.5 22.7109 4.46094 22.9062 4.38281 23.0859C4.30469 23.2656 4.19922 23.4219 4.06641 23.5547C3.93359 23.6875 3.77344 23.7969 3.58594 23.8828C3.39844 23.9688 3.20313 24.0078 3 24H1.5C1.28906 24 1.09375 23.9609 0.914062 23.8828C0.734375 23.8047 0.578125 23.6992 0.445312 23.5664C0.3125 23.4336 0.203125 23.2734 0.117188 23.0859C0.03125 22.8984 -0.0078125 22.7031 1.16415e-10 22.5V14.8828L0.0820312 14.6367L0.292969 14.0039L0.574219 13.1602C0.675781 12.8555 0.769531 12.5703 0.855469 12.3047C0.941406 12.0391 1.01953 11.8086 1.08984 11.6133C1.16016 11.418 1.19922 11.3008 1.20703 11.2617L0.433594 10.5H1.16415e-10V9H1.06641L1.73438 9.67969L2.60156 7.06641C2.72656 6.68359 2.90625 6.33594 3.14062 6.02344C3.375 5.71094 3.65234 5.44141 3.97266 5.21484C4.29297 4.98828 4.63281 4.8125 4.99219 4.6875C5.35156 4.5625 5.74219 4.5 6.16406 4.5H17.8359C18.2422 4.5 18.6289 4.5625 18.9961 4.6875C19.3633 4.8125 19.707 4.98438 20.0273 5.20312C20.3477 5.42188 20.6211 5.69141 20.8477 6.01172C21.0742 6.33203 21.2578 6.68359 21.3984 7.06641L22.2656 9.67969L22.9336 9H24V10.5H23.5664ZM6.16406 6C5.67188 6 5.23438 6.14062 4.85156 6.42188C4.46875 6.70312 4.19531 7.07422 4.03125 7.53516L3.03516 10.5H20.9648L19.9688 7.53516C19.8125 7.07422 19.543 6.70312 19.1602 6.42188C18.7773 6.14062 18.3359 6 17.8359 6H6.16406ZM16.5 20.4258L15.2812 18H8.71875L7.5 20.4258V21H16.5V20.4258ZM22.5 21V15.1172L22.4297 14.9062C22.3828 14.7656 22.3242 14.582 22.2539 14.3555C22.1836 14.1289 22.1016 13.8906 22.0078 13.6406C21.9141 13.3906 21.832 13.1445 21.7617 12.9023C21.6914 12.6602 21.625 12.4609 21.5625 12.3047C21.5 12.1484 21.4648 12.0469 21.457 12H2.54297C2.52734 12.0391 2.49219 12.1406 2.4375 12.3047C2.38281 12.4688 2.31641 12.6641 2.23828 12.8906C2.16016 13.1172 2.07812 13.3633 1.99219 13.6289C1.90625 13.8945 1.82812 14.1367 1.75781 14.3555C1.6875 14.5742 1.625 14.7539 1.57031 14.8945C1.51562 15.0352 1.49219 15.1094 1.5 15.1172V21H6V20.0742L7.78125 16.5H16.2188L18 20.0742V21H22.5Z" fill="#D1D1D6"/>
</svg>
