<svg width="5" height="18" viewBox="0 0 5 18" fill="none" xmlns="http://www.w3.org/2000/svg">
<path d="M2.08 7.11988C0.936 7.11988 0 8.05588 0 9.19988C0 10.3439 0.936 11.2799 2.08 11.2799C3.224 11.2799 4.16 10.3439 4.16 9.19988C4.16 8.05588 3.224 7.11988 2.08 7.11988ZM2.08 0.879883C0.936 0.879883 0 1.81588 0 2.95988C0 4.10388 0.936 5.03988 2.08 5.03988C3.224 5.03988 4.16 4.10388 4.16 2.95988C4.16 1.81588 3.224 0.879883 2.08 0.879883ZM2.08 13.3599C0.936 13.3599 0 14.2959 0 15.4399C0 16.5839 0.936 17.5199 2.08 17.5199C3.224 17.5199 4.16 16.5839 4.16 15.4399C4.16 14.2959 3.224 13.3599 2.08 13.3599Z" fill="#959595"/>
</svg>
