<svg width="24" height="24" viewBox="0 0 24 24" fill="none" xmlns="http://www.w3.org/2000/svg">
<path fill-rule="evenodd" clip-rule="evenodd" d="M7.34483 4.01717C10.4387 3.67462 13.561 3.67462 16.6548 4.01717C18.3678 4.20917 19.7498 5.55817 19.9508 7.27717C20.3175 10.4152 20.3175 13.5852 19.9508 16.7232C19.7498 18.4422 18.3678 19.7912 16.6548 19.9832C13.561 20.3257 10.4387 20.3257 7.34483 19.9832C5.63183 19.7912 4.24983 18.4422 4.04883 16.7232C3.68229 13.5855 3.68229 10.4158 4.04883 7.27817C4.1505 6.44304 4.53121 5.66671 5.12927 5.07501C5.72732 4.48331 6.50767 4.11091 7.34383 4.01817M11.9998 7.00717C12.1987 7.00717 12.3895 7.08619 12.5302 7.22684C12.6708 7.36749 12.7498 7.55826 12.7498 7.75717V11.2502H16.2428C16.4417 11.2502 16.6325 11.3292 16.7732 11.4698C16.9138 11.6105 16.9928 11.8013 16.9928 12.0002C16.9928 12.1991 16.9138 12.3898 16.7732 12.5305C16.6325 12.6712 16.4417 12.7502 16.2428 12.7502H12.7498V16.2432C12.7498 16.4421 12.6708 16.6328 12.5302 16.7735C12.3895 16.9142 12.1987 16.9932 11.9998 16.9932C11.8009 16.9932 11.6102 16.9142 11.4695 16.7735C11.3289 16.6328 11.2498 16.4421 11.2498 16.2432V12.7502H7.75683C7.55792 12.7502 7.36716 12.6712 7.2265 12.5305C7.08585 12.3898 7.00683 12.1991 7.00683 12.0002C7.00683 11.8013 7.08585 11.6105 7.2265 11.4698C7.36716 11.3292 7.55792 11.2502 7.75683 11.2502H11.2498V7.75717C11.2498 7.55826 11.3289 7.36749 11.4695 7.22684C11.6102 7.08619 11.8009 7.00717 11.9998 7.00717Z" fill="#2C2C2C"/>
</svg>
