<svg width="16" height="16" viewBox="0 0 16 16" fill="none" xmlns="http://www.w3.org/2000/svg">
<path fill-rule="evenodd" clip-rule="evenodd" d="M5.14286 1.71436C4.57714 1.71436 4.13371 2.05836 3.85943 2.47093C3.58171 2.88693 3.42857 3.42978 3.42857 4.00007C3.42857 4.57036 3.58171 5.11321 3.85943 5.52921C4.13371 5.94064 4.57714 6.28578 5.14286 6.28578C5.70857 6.28578 6.152 5.94178 6.42629 5.52921C6.704 5.11321 6.85714 4.57036 6.85714 4.00007C6.85714 3.42978 6.704 2.88693 6.42629 2.47093C6.152 2.0595 5.70857 1.71436 5.14286 1.71436ZM10.8571 1.71436C10.2914 1.71436 9.848 2.05836 9.57371 2.47093C9.296 2.88693 9.14286 3.42978 9.14286 4.00007C9.14286 4.57036 9.296 5.11321 9.57371 5.52921C9.848 5.94064 10.2914 6.28578 10.8571 6.28578C11.4229 6.28578 11.8663 5.94178 12.1406 5.52921C12.4183 5.11321 12.5714 4.57036 12.5714 4.00007C12.5714 3.42978 12.4183 2.88693 12.1406 2.47093C11.8663 2.0595 11.4229 1.71436 10.8571 1.71436ZM1.71429 6.85721C1.14857 6.85721 0.705143 7.20121 0.430857 7.61378C0.153143 8.02978 0 8.57264 0 9.14293C0 9.71321 0.153143 10.2561 0.430857 10.6721C0.705143 11.0835 1.14857 11.4286 1.71429 11.4286C2.28 11.4286 2.72343 11.0846 2.99771 10.6721C3.27543 10.2561 3.42857 9.71321 3.42857 9.14293C3.42857 8.57264 3.27543 8.02978 2.99771 7.61378C2.72343 7.20236 2.28 6.85721 1.71429 6.85721ZM8 6.85721C6.62857 6.85721 5.61257 7.59321 4.96343 8.50635C4.32229 9.40578 4 10.5224 4 11.4286C4 12.4846 4.63429 13.2184 5.41257 13.6595C6.17829 14.0938 7.13829 14.2858 8 14.2858C8.86171 14.2858 9.82171 14.0949 10.5874 13.6595C11.3646 13.2184 12 12.4846 12 11.4286C12 10.5224 11.6777 9.40578 11.0366 8.50635C10.3886 7.59207 9.37257 6.85721 8 6.85721ZM14.2857 6.85721C13.72 6.85721 13.2766 7.20121 13.0023 7.61378C12.7246 8.02978 12.5714 8.57264 12.5714 9.14293C12.5714 9.71321 12.7246 10.2561 13.0023 10.6721C13.2766 11.0835 13.72 11.4286 14.2857 11.4286C14.8514 11.4286 15.2949 11.0846 15.5691 10.6721C15.8469 10.2561 16 9.71321 16 9.14293C16 8.57264 15.8469 8.02978 15.5691 7.61378C15.2949 7.20236 14.8514 6.85721 14.2857 6.85721Z" fill="#2C2C2C"/>
</svg>
