<svg width="16" height="16" viewBox="0 0 16 16" fill="none" xmlns="http://www.w3.org/2000/svg">
<path d="M2.33317 2.75668C2.33323 2.50339 2.42149 2.25803 2.5828 2.06275C2.74411 1.86747 2.96839 1.73446 3.21711 1.68658C3.46583 1.6387 3.72347 1.67893 3.94575 1.80036C4.16803 1.92179 4.34108 2.11685 4.43517 2.35201L4.53117 2.59068C4.12033 2.89151 3.80169 3.30112 3.61117 3.77334C3.34075 4.43643 3.33597 5.17817 3.59784 5.84468C3.62245 5.90699 3.65932 5.96371 3.70628 6.01149C3.75324 6.05927 3.80933 6.09713 3.8712 6.12281C3.93307 6.14849 3.99948 6.16148 4.06647 6.161C4.13346 6.16052 4.19967 6.14658 4.26117 6.12001L8.2345 4.40934C8.35379 4.35807 8.44845 4.26241 8.49846 4.1426C8.54848 4.02278 8.54993 3.88821 8.5025 3.76734C8.37551 3.43932 8.18441 3.1399 7.94037 2.88658C7.69632 2.63327 7.40423 2.43114 7.08117 2.29201C6.56229 2.06919 5.98429 2.02419 5.43717 2.16401L5.36384 1.98068C5.18351 1.52962 4.8517 1.15546 4.42543 0.922504C3.99916 0.689552 3.50506 0.612361 3.02805 0.704196C2.55104 0.796032 2.12092 1.05116 1.81161 1.42573C1.5023 1.80029 1.33313 2.27091 1.33317 2.75668V7.33334H1.1665C1.0339 7.33334 0.906719 7.38602 0.812951 7.47979C0.719182 7.57356 0.666504 7.70073 0.666504 7.83334C0.666504 7.96595 0.719182 8.09313 0.812951 8.1869C0.906719 8.28066 1.0339 8.33334 1.1665 8.33334H1.33317V8.57001C1.33317 8.82001 1.33317 8.96668 1.34384 9.13001C1.4385 10.6213 2.24384 11.998 3.41184 12.898L3.38584 12.9433L2.71917 14.2767C2.66116 14.3952 2.65233 14.5318 2.69461 14.6568C2.73689 14.7817 2.82686 14.8849 2.9449 14.9439C3.06294 15.0028 3.19949 15.0127 3.32479 14.9714C3.45009 14.9301 3.55399 14.8409 3.61384 14.7233L4.25917 13.4333C4.79651 13.707 5.37949 13.8799 5.97917 13.9433C6.1425 13.96 6.24184 13.9633 6.41117 13.97H6.41584C6.90917 13.9887 7.39184 14 7.83317 14C8.2745 14 8.75717 13.9887 9.2505 13.97H9.25517C9.4245 13.9633 9.5245 13.96 9.68717 13.9433C10.2869 13.8799 10.8698 13.707 11.4072 13.4333L12.0525 14.724C12.0819 14.7828 12.1225 14.8351 12.1721 14.8782C12.2218 14.9212 12.2794 14.954 12.3417 14.9748C12.404 14.9956 12.4698 15.0039 12.5353 14.9992C12.6008 14.9946 12.6648 14.977 12.7235 14.9477C12.7822 14.9183 12.8346 14.8776 12.8777 14.828C12.9207 14.7784 12.9535 14.7208 12.9743 14.6585C12.9951 14.5962 13.0034 14.5304 12.9987 14.4649C12.9941 14.3994 12.9765 14.3354 12.9472 14.2767L12.2805 12.9433L12.2552 12.898C13.4225 11.998 14.2285 10.6207 14.3232 9.13001C14.3332 8.96668 14.3332 8.82001 14.3332 8.57001V8.54468C14.3332 8.50468 14.3332 8.46268 14.3305 8.42468C14.3284 8.39413 14.3253 8.36367 14.3212 8.33334H14.4998C14.6324 8.33334 14.7596 8.28066 14.8534 8.1869C14.9472 8.09313 14.9998 7.96595 14.9998 7.83334C14.9998 7.70073 14.9472 7.57356 14.8534 7.47979C14.7596 7.38602 14.6324 7.33334 14.4998 7.33334H2.33317V2.75668Z" fill="#2C2C2C"/>
</svg>
