<svg width="16" height="16" viewBox="0 0 16 16" fill="none" xmlns="http://www.w3.org/2000/svg">
<path d="M12.0002 5.33333C12.0002 5.68696 11.8597 6.02609 11.6096 6.27614C11.3596 6.52619 11.0205 6.66667 10.6668 6.66667C10.3132 6.66667 9.97407 6.52619 9.72402 6.27614C9.47397 6.02609 9.3335 5.68696 9.3335 5.33333C9.3335 4.97971 9.47397 4.64057 9.72402 4.39052C9.97407 4.14048 10.3132 4 10.6668 4C11.0205 4 11.3596 4.14048 11.6096 4.39052C11.8597 4.64057 12.0002 4.97971 12.0002 5.33333Z" fill="#2C2C2C"/>
<path fill-rule="evenodd" clip-rule="evenodd" d="M7.96216 0.83343H8.03816C9.5775 0.83343 10.7835 0.83343 11.7248 0.960097C12.6875 1.08943 13.4475 1.3601 14.0442 1.9561C14.6408 2.55276 14.9108 3.31276 15.0402 4.2761C15.1668 5.21676 15.1668 6.42276 15.1668 7.9621V8.02076C15.1668 9.29343 15.1668 10.3348 15.0975 11.1828C15.0282 12.0361 14.8862 12.7474 14.5675 13.3394C14.4279 13.5999 14.2535 13.8348 14.0442 14.0441C13.4475 14.6408 12.6875 14.9108 11.7242 15.0401C10.7835 15.1668 9.5775 15.1668 8.03816 15.1668H7.96216C6.42283 15.1668 5.21683 15.1668 4.2755 15.0401C3.31283 14.9108 2.55283 14.6401 1.95616 14.0441C1.4275 13.5154 1.15416 12.8574 1.0095 12.0401C0.866163 11.2381 0.840163 10.2401 0.834829 9.00143C0.833941 8.68588 0.833496 8.3521 0.833496 8.0001V7.96143C0.833496 6.4221 0.833496 5.2161 0.960163 4.27476C1.0895 3.3121 1.36016 2.5521 1.95616 1.95543C2.55283 1.35876 3.31283 1.08876 4.27616 0.95943C5.21683 0.832764 6.42283 0.832764 7.96216 0.832764M4.40883 1.9501C3.55683 2.06476 3.04283 2.28343 2.6635 2.66276C2.2835 3.04276 2.0655 3.5561 1.95083 4.40876C1.83483 5.27543 1.8335 6.4141 1.8335 7.99943V8.5621L2.50083 7.9781C2.79354 7.72186 3.17271 7.58647 3.56152 7.59935C3.95033 7.61222 4.31971 7.7724 4.59483 8.04743L7.45483 10.9074C7.67677 11.1293 7.96986 11.2658 8.28253 11.2929C8.59519 11.32 8.90739 11.2359 9.16416 11.0554L9.36283 10.9154C9.73328 10.6551 10.1811 10.5282 10.6331 10.5555C11.085 10.5827 11.5143 10.7625 11.8508 11.0654L13.7375 12.7634C13.9282 12.3648 14.0408 11.8408 14.1008 11.1014C14.1662 10.2981 14.1668 9.29676 14.1668 7.99943C14.1668 6.4141 14.1655 5.27543 14.0495 4.40876C13.9348 3.5561 13.7162 3.0421 13.3368 2.6621C12.9568 2.28276 12.4435 2.06476 11.5908 1.9501C10.7242 1.8341 9.5855 1.83276 8.00016 1.83276C6.41483 1.83276 5.2755 1.8341 4.40883 1.9501Z" fill="#2C2C2C"/>
</svg>
