<svg width="16" height="16" viewBox="0 0 16 16" fill="none" xmlns="http://www.w3.org/2000/svg">
<path d="M8.00023 14.0001C7.53356 14.0001 7.13912 13.839 6.81689 13.5167C6.49467 13.1945 6.33356 12.8001 6.33356 12.3334C6.33356 11.8667 6.49467 11.4723 6.81689 11.1501C7.13912 10.8279 7.53356 10.6667 8.00023 10.6667C8.46689 10.6667 8.86134 10.8279 9.18356 11.1501C9.50578 11.4723 9.66689 11.8667 9.66689 12.3334C9.66689 12.8001 9.50578 13.1945 9.18356 13.5167C8.86134 13.839 8.46689 14.0001 8.00023 14.0001ZM8.00023 6.66675C8.83356 6.66675 9.62534 6.80008 10.3756 7.06675C11.1258 7.33341 11.8062 7.70008 12.4169 8.16675C12.6391 8.33341 12.7531 8.55297 12.7589 8.82541C12.7647 9.09786 12.6673 9.33386 12.4669 9.53341C12.278 9.7223 12.0447 9.81964 11.7669 9.82541C11.4891 9.83119 11.2391 9.75608 11.0169 9.60008C10.5947 9.31119 10.128 9.08341 9.61689 8.91675C9.10578 8.75008 8.56689 8.66675 8.00023 8.66675C7.43356 8.66675 6.89467 8.75008 6.38356 8.91675C5.87245 9.08341 5.40578 9.31119 4.98356 9.60008C4.76134 9.75564 4.51134 9.82786 4.23356 9.81675C3.95578 9.80564 3.72245 9.70564 3.53356 9.51675C3.34467 9.31675 3.25023 9.08075 3.25023 8.80875C3.25023 8.53675 3.36134 8.31719 3.58356 8.15008C4.19467 7.68341 4.87534 7.31941 5.62556 7.05808C6.37578 6.79675 7.16734 6.6663 8.00023 6.66675ZM8.00023 2.66675C9.38912 2.66675 10.6976 2.89453 11.9256 3.35008C13.1536 3.80564 14.2562 4.45008 15.2336 5.28341C15.4558 5.4723 15.5724 5.70564 15.5836 5.98341C15.5947 6.26119 15.5002 6.50008 15.3002 6.70008C15.1113 6.88897 14.878 6.9863 14.6002 6.99208C14.3224 6.99786 14.0724 6.91164 13.8502 6.73341C13.0502 6.07786 12.1531 5.56964 11.1589 5.20875C10.1647 4.84786 9.11178 4.66719 8.00023 4.66675C6.88867 4.6663 5.836 4.84697 4.84223 5.20875C3.84845 5.57053 2.95112 6.07875 2.15023 6.73341C1.928 6.91119 1.678 6.99741 1.40023 6.99208C1.12245 6.98675 0.889115 6.88941 0.700226 6.70008C0.500226 6.50008 0.405782 6.26119 0.416893 5.98341C0.428004 5.70564 0.544671 5.4723 0.766893 5.28341C1.74467 4.45008 2.84756 3.80564 4.07556 3.35008C5.30356 2.89453 6.61178 2.66675 8.00023 2.66675Z" fill="#2C2C2C"/>
</svg>
