<svg width="16" height="16" viewBox="0 0 16 16" fill="none" xmlns="http://www.w3.org/2000/svg">
<path d="M9.8865 7.44659C10.3856 7.94763 10.6658 8.62603 10.6658 9.33325C10.6658 10.0405 10.3856 10.7189 9.8865 11.2199C9.38546 11.719 8.70706 11.9993 7.99984 11.9993C7.29262 11.9993 6.61422 11.719 6.11317 11.2199L9.8865 7.44659ZM3.99984 1.33325H11.9998C12.3535 1.33325 12.6926 1.47373 12.9426 1.72378C13.1927 1.97382 13.3332 2.31296 13.3332 2.66659V13.3333C13.3332 13.6869 13.1927 14.026 12.9426 14.2761C12.6926 14.5261 12.3535 14.6666 11.9998 14.6666H3.99984C3.64622 14.6666 3.30708 14.5261 3.05703 14.2761C2.80698 14.026 2.6665 13.6869 2.6665 13.3333V2.66659C2.6665 2.31296 2.80698 1.97382 3.05703 1.72378C3.30708 1.47373 3.64622 1.33325 3.99984 1.33325ZM4.6665 2.66659C4.48969 2.66659 4.32012 2.73682 4.1951 2.86185C4.07008 2.98687 3.99984 3.15644 3.99984 3.33325C3.99984 3.51006 4.07008 3.67963 4.1951 3.80466C4.32012 3.92968 4.48969 3.99992 4.6665 3.99992C4.84331 3.99992 5.01288 3.92968 5.13791 3.80466C5.26293 3.67963 5.33317 3.51006 5.33317 3.33325C5.33317 3.15644 5.26293 2.98687 5.13791 2.86185C5.01288 2.73682 4.84331 2.66659 4.6665 2.66659ZM6.6665 2.66659C6.48969 2.66659 6.32012 2.73682 6.1951 2.86185C6.07008 2.98687 5.99984 3.15644 5.99984 3.33325C5.99984 3.51006 6.07008 3.67963 6.1951 3.80466C6.32012 3.92968 6.48969 3.99992 6.6665 3.99992C6.84332 3.99992 7.01288 3.92968 7.13791 3.80466C7.26293 3.67963 7.33317 3.51006 7.33317 3.33325C7.33317 3.15644 7.26293 2.98687 7.13791 2.86185C7.01288 2.73682 6.84332 2.66659 6.6665 2.66659ZM7.99984 5.33325C6.93897 5.33325 5.92156 5.75468 5.17141 6.50482C4.42126 7.25497 3.99984 8.27239 3.99984 9.33325C3.99984 10.3941 4.42126 11.4115 5.17141 12.1617C5.92156 12.9118 6.93897 13.3333 7.99984 13.3333C9.0607 13.3333 10.0781 12.9118 10.8283 12.1617C11.5784 11.4115 11.9998 10.3941 11.9998 9.33325C11.9998 8.27239 11.5784 7.25497 10.8283 6.50482C10.0781 5.75468 9.0607 5.33325 7.99984 5.33325Z" fill="#2C2C2C"/>
</svg>
