<svg width="192" height="34" viewBox="0 0 192 34" fill="none" xmlns="http://www.w3.org/2000/svg">
<path d="M48.8802 20.9082C48.8802 24.73 45.6044 27.1086 40.768 27.1086C34.3338 27.1086 31.5648 24.1057 31.3701 19.8945H35.3475C35.5422 22.0392 36.4786 23.8719 40.6907 23.8719C43.537 23.8719 44.7463 22.4678 44.7463 21.2203C44.7463 18.7243 42.3668 18.5296 39.4422 17.8271C36.2838 17.0864 31.9934 16.4622 31.9934 11.9388C31.9934 8.66304 34.8798 6.04968 39.8717 6.04968C45.2923 6.04968 47.8656 8.97516 48.1386 12.4457H44.1612C43.8882 10.886 43.1084 9.28635 39.91 9.28635C37.4531 9.28635 36.1273 10.2227 36.1273 11.6267C36.1273 13.6541 38.3503 13.8106 41.2367 14.473C44.9019 15.3311 48.8802 16.1501 48.8802 20.9082Z" fill="#2C2C2C"/>
<path d="M56.5627 9.94976V20.7517C56.5627 23.0139 57.6546 23.2868 60.3062 23.1312V26.4844C59.386 26.7001 58.4433 26.8049 57.4981 26.7965C54.2223 26.7965 52.4288 25.3151 52.4288 21.103V9.94976H49.5425V6.59571H52.4288V0.317078H56.5627V6.59571H60.3062V9.94976H56.5627Z" fill="#2C2C2C"/>
<path d="M71.4974 9.28635C68.2216 9.28635 67.0132 10.3009 66.8175 12.8743H62.8401C63.0349 9.0525 65.4917 6.04968 71.4974 6.04968C75.9042 6.04968 79.18 7.72671 79.18 13.0308V22.507C79.18 23.911 79.4921 24.6517 81.0909 24.4961V26.4461C80.3341 26.7444 79.5257 26.89 78.7123 26.8747C76.5285 26.8747 75.5148 26.0949 75.1244 24.1449H75.0461C73.7986 25.9001 71.5365 27.1086 68.4554 27.1086C64.3998 27.1086 61.9038 24.7691 61.9038 21.415C61.9038 17.0473 65.1414 15.6824 70.1324 14.7078C73.2135 14.1227 75.0853 13.7324 75.0853 11.8215C75.0853 10.3783 74.2272 9.28635 71.4974 9.28635ZM75.0853 18.9582V15.9553C74.4228 16.4231 72.8232 16.8917 70.9123 17.2811C67.52 18.0218 66.0377 18.9973 66.0377 21.0247C66.0377 22.8582 67.1296 23.8719 69.3526 23.8719C72.7458 23.8719 75.0853 22.1948 75.0853 18.9582Z" fill="#2C2C2C"/>
<path d="M92.2444 27.772C91.1133 30.8521 89.8267 33.309 86.0049 33.309C85.0176 33.3019 84.0351 33.1711 83.0803 32.9195V29.7993H83.4316C85.1468 30.0332 86.4344 29.9167 87.3307 28.8248C88.0723 27.9276 88.6182 26.3679 87.8766 24.4962L80.6626 6.5957H85.0695L90.6456 21.8437H90.7239L95.8323 6.5957H100.2L92.2444 27.772Z" fill="#2C2C2C"/>
<path d="M104.88 6.5957L109.911 22.1949H109.95L114.981 6.5957H119.309L112.251 26.5235H107.61L100.552 6.5957H104.88Z" fill="#2C2C2C"/>
<path d="M134.323 20.4405H138.418C137.404 24.2231 134.441 27.1086 129.331 27.1086C123.131 27.1086 119.348 22.8191 119.348 16.5796C119.348 10.1053 123.131 6.04968 129.136 6.04968C135.572 6.04968 138.73 10.5348 138.73 17.6324H123.443C123.443 20.9864 125.588 23.7545 129.215 23.7545C132.607 23.7545 133.972 21.6489 134.323 20.4405ZM123.443 14.5904H134.635C134.635 11.5094 132.451 9.28635 129.136 9.28635C125.822 9.28635 123.443 11.5094 123.443 14.5904Z" fill="#2C2C2C"/>
<path d="M152.453 6.2452V10.1052H152.375C148.436 9.44274 145.278 12.0943 145.278 16.3456V26.5233H141.183V6.59553H145.278V10.34H145.355C146.409 7.84397 148.047 6.12782 150.659 6.12782C151.259 6.12401 151.859 6.16324 152.453 6.2452Z" fill="#2C2C2C"/>
<path d="M170.98 20.9082C170.98 24.73 167.704 27.1086 162.869 27.1086C156.434 27.1086 153.665 24.1057 153.47 19.8945H157.448C157.643 22.0392 158.579 23.8719 162.791 23.8719C165.638 23.8719 166.846 22.4678 166.846 21.2203C166.846 18.7243 164.468 18.5296 161.543 17.8271C158.384 17.0864 154.094 16.4622 154.094 11.9388C154.094 8.66304 156.98 6.04968 161.972 6.04968C167.392 6.04968 169.967 8.97516 170.24 12.4457H166.261C165.988 10.886 165.209 9.28635 162.011 9.28635C159.554 9.28635 158.228 10.2227 158.228 11.6267C158.228 13.6541 160.451 13.8106 163.337 14.473C167.003 15.3311 170.98 16.1501 170.98 20.9082Z" fill="#2C2C2C"/>
<path d="M187.593 20.4405H191.688C190.674 24.2231 187.71 27.1086 182.601 27.1086C176.401 27.1086 172.618 22.8191 172.618 16.5796C172.618 10.1053 176.401 6.04968 182.406 6.04968C188.841 6.04968 192 10.5348 192 17.6324H176.713C176.713 20.9864 178.858 23.7545 182.485 23.7545C185.877 23.7545 187.242 21.6489 187.593 20.4405ZM176.713 14.5904H187.905C187.905 11.5094 185.721 9.28635 182.406 9.28635C179.092 9.28635 176.713 11.5094 176.713 14.5904Z" fill="#2C2C2C"/>
<path d="M0.953125 15.5624L8.29548 19.8364L8.27819 11.3175L12.5467 8.82422L19.8618 13.07L19.8663 4.56203L12.5422 0.307129L0.954944 7.02343L0.953125 15.5624Z" fill="#2C2C2C"/>
<path d="M19.8663 18.1485L12.524 13.8735L12.5413 22.3924L8.27273 24.8857L0.958584 20.6399L0.953125 29.1479L8.27819 33.4028L19.8645 26.6865L19.8663 18.1485Z" fill="#2C2C2C"/>
</svg>
