<svg width="45" height="12" viewBox="0 0 45 12" fill="none" xmlns="http://www.w3.org/2000/svg">
<g clip-path="url(#clip0_383_3047)">
<path d="M26.6281 11.1268H26.6396L26.6454 11.1074L26.627 11.1268H26.6281Z" fill="#FF5303"/>
<path d="M3.64462 2.70061H1.69616C1.54654 2.70061 1.44066 2.55432 1.48899 2.41375L2.24744 0.176036C2.27736 0.0880359 2.36137 0.0274658 2.4546 0.0274658H10.115C10.2657 0.0274658 10.3705 0.17375 10.3221 0.315465L9.54986 2.55318C9.51994 2.64118 9.43593 2.70061 9.3427 2.70061H7.04897C6.9546 2.70061 6.87173 2.76004 6.84181 2.84918L3.8702 11.6663C3.84027 11.7555 3.75626 11.8149 3.66304 11.8149H1.18286C1.03324 11.8149 0.927358 11.6698 0.975696 11.528L3.85408 2.98747C3.90127 2.8469 3.79654 2.70061 3.64692 2.70061H3.64462Z" fill="#FF5303"/>
<path d="M7.85143 3.18183H10.281C10.4306 3.18183 10.5365 3.32811 10.4881 3.46868L10.2729 4.10297C10.197 4.32697 10.487 4.49611 10.6435 4.31668C11.3283 3.53268 12.1961 3.01611 13.2814 3.01611C13.4126 3.01611 13.5564 3.02297 13.6991 3.05611C13.8234 3.08468 13.8948 3.21726 13.8533 3.33726L13.0546 5.66297C13.0201 5.7624 12.9211 5.82297 12.8175 5.80811C12.6737 5.78754 12.4907 5.77268 12.2743 5.77268C10.7241 5.77268 9.57432 6.69611 8.96319 8.0184C8.95974 8.0264 8.95629 8.0344 8.95284 8.04354L7.72598 11.6675C7.69606 11.7555 7.61204 11.8161 7.51882 11.8161H5.08813C4.93851 11.8161 4.83263 11.671 4.88097 11.5293L7.64427 3.33154C7.67419 3.2424 7.75821 3.18297 7.85143 3.18297V3.18183Z" fill="#FF5303"/>
<path d="M11.199 7.99546C11.832 5.27318 14.2961 3.01489 16.8534 3.01489C18.4082 3.01489 18.9169 3.84461 18.9825 3.99432H19.0826L19.3209 3.32575C19.352 3.23889 19.4348 3.1806 19.5269 3.1806H21.9599C22.1095 3.1806 22.2154 3.32575 22.1671 3.46746L19.4037 11.6652C19.3738 11.7543 19.2898 11.8137 19.1966 11.8137H16.7717C16.6209 11.8137 16.515 11.6652 16.5656 11.5235L16.7521 11H16.6347C16.5162 11.1497 15.3204 11.9795 13.9163 11.9795C12.0772 11.9795 10.5925 10.6012 11.1979 7.99546H11.199ZM15.4101 9.44004C16.3297 9.44004 17.6797 8.80918 18.0422 7.24918C18.3438 5.95432 17.5002 5.55546 16.7647 5.55546C15.8452 5.55546 14.4952 6.18632 14.1361 7.73032C13.8311 9.04118 14.6747 9.44004 15.4101 9.44004Z" fill="#FF5303"/>
<path d="M30.6126 5.16461C30.6298 3.65604 29.6297 3.01489 28.3016 3.01489C27.4315 3.01489 26.6685 3.28918 26.0412 3.71661C25.8686 3.83432 25.6442 3.66632 25.7109 3.46861C25.7581 3.32804 25.6522 3.18289 25.5026 3.18289H23.0719C22.9775 3.18289 22.8947 3.24232 22.8647 3.33146L20.1003 11.5269C20.0531 11.6675 20.1578 11.8137 20.3075 11.8137H22.737C22.8314 11.8137 22.9142 11.7543 22.9442 11.6652L24.4449 7.23318C24.7695 6.33604 25.2874 5.55546 26.3554 5.55546C27.4234 5.55546 27.5443 6.33604 27.237 7.23318L25.7984 11.528C25.7512 11.6686 25.8571 11.8137 26.0067 11.8137H28.5778L28.5858 11.7863L29.0071 10.5577L30.3122 6.73375C30.3617 6.58518 30.4043 6.44004 30.4399 6.30175C30.5527 5.87775 30.6068 5.50061 30.6114 5.16461H30.6126Z" fill="#FF5303"/>
<path d="M34.2406 9.32343H37.0304C37.18 9.32343 37.2847 9.46857 37.2387 9.60914L36.5539 11.664C36.524 11.7531 36.44 11.8126 36.3456 11.8126H28.2617L28.2698 11.7851L33.9241 6.04114C34.0599 5.904 33.961 5.672 33.7676 5.672H31.0653C30.9157 5.672 30.8098 5.52572 30.8581 5.38515L31.5567 3.33029C31.5867 3.24229 31.6707 3.18286 31.7639 3.18286H39.2274C39.4208 3.18286 39.5198 3.41486 39.384 3.552L37.5322 5.44L34.0829 8.95543C33.9483 9.09372 34.0461 9.32457 34.2395 9.32457L34.2406 9.32343Z" fill="#FF5303"/>
<path d="M41.8675 5.43882H43.3913C43.4857 5.43882 43.5697 5.37939 43.5985 5.29025L44.2108 3.46854C44.2579 3.32796 44.1521 3.18168 44.0036 3.18168H42.7721C42.6225 3.18168 42.5166 3.03539 42.565 2.89482L43.1186 1.25939C43.1657 1.11882 43.061 0.972534 42.9114 0.972534H40.4819C40.3875 0.972534 40.3046 1.03196 40.2747 1.12111L39.5773 3.18168H39.4702L37.6184 5.06968C37.4838 5.20796 37.5816 5.43882 37.775 5.43882H38.5138C38.6634 5.43882 38.7693 5.58511 38.721 5.72568L37.6403 8.92453C36.9037 11.0822 37.8981 11.9131 39.6198 11.9131C40.2482 11.9131 41.0562 11.8045 41.4889 11.4708C41.5211 11.4457 41.5441 11.4102 41.5579 11.3714L42.1656 9.62625C42.2209 9.46854 42.0839 9.31196 41.9182 9.34168C41.7214 9.37596 41.5522 9.38968 41.4267 9.38968C40.6073 9.38968 40.5394 8.89025 40.6833 8.49253L41.6604 5.58739C41.6903 5.49825 41.7743 5.43882 41.8675 5.43882Z" fill="#FF5303"/>
</g>
<defs>
<clipPath id="clip0_383_3047">
<rect width="45" height="12" fill="white"/>
</clipPath>
</defs>
</svg>
