<svg width="13" height="14" viewBox="0 0 13 14" fill="none" xmlns="http://www.w3.org/2000/svg">
<path fill-rule="evenodd" clip-rule="evenodd" d="M6.49999 0.75C6.00562 0.75 5.53124 0.94625 5.18124 1.29625L4.62312 1.85438C4.50712 1.96878 4.35103 2.03336 4.18812 2.03437H3.39999C3.15497 2.03429 2.91234 2.08249 2.68595 2.17622C2.45957 2.26995 2.25387 2.40737 2.08061 2.58062C1.90736 2.75388 1.76994 2.95957 1.67621 3.18596C1.58248 3.41234 1.53428 3.65498 1.53437 3.9V4.68875C1.53336 4.85167 1.46877 5.00775 1.35437 5.12375L0.796242 5.68187C0.446489 6.03163 0.25 6.506 0.25 7.00063C0.25 7.49525 0.446489 7.96962 0.796242 8.31938L1.35437 8.8775C1.46877 8.9935 1.53336 9.14958 1.53437 9.3125V10.1012C1.53437 10.5959 1.73086 11.0702 2.08061 11.42C2.43037 11.7698 2.90474 11.9662 3.39937 11.9662H4.18812C4.35124 11.9662 4.50812 12.0312 4.62312 12.1462L5.18124 12.7044C5.531 13.0541 6.00536 13.2506 6.49999 13.2506C6.99462 13.2506 7.46899 13.0541 7.81874 12.7044L8.37687 12.1462C8.49286 12.0318 8.64895 11.9673 8.81187 11.9662H9.60062C10.0952 11.9662 10.5696 11.7698 10.9194 11.42C11.2691 11.0702 11.4656 10.5959 11.4656 10.1012V9.3125C11.4656 9.14937 11.5306 8.9925 11.6456 8.8775L12.2037 8.31938C12.5535 7.96962 12.75 7.49525 12.75 7.00063C12.75 6.506 12.5535 6.03163 12.2037 5.68187L11.6456 5.12375C11.5312 5.00775 11.4666 4.85167 11.4656 4.68875V3.9C11.4656 3.40537 11.2691 2.931 10.9194 2.58125C10.5696 2.23149 10.0952 2.035 9.60062 2.035H8.81187C8.64895 2.03399 8.49286 1.9694 8.37687 1.855L7.81874 1.29688C7.64569 1.12347 7.44014 0.985907 7.21385 0.892065C6.98755 0.798224 6.74497 0.749947 6.49999 0.75ZM8.80187 5.58125C8.86292 5.52392 8.91182 5.45491 8.94568 5.37831C8.97953 5.30171 8.99765 5.21909 8.99895 5.13535C9.00025 5.05161 8.98471 4.96847 8.95325 4.89086C8.92179 4.81324 8.87505 4.74275 8.81581 4.68355C8.75657 4.62435 8.68604 4.57766 8.6084 4.54626C8.53077 4.51485 8.44761 4.49937 8.36388 4.50073C8.28014 4.50209 8.19753 4.52026 8.12096 4.55417C8.04438 4.58808 7.9754 4.63704 7.91812 4.69813L5.25999 7.35625L4.46187 6.55813C4.34467 6.44085 4.18569 6.37493 4.0199 6.37487C3.85411 6.37481 3.69508 6.44062 3.5778 6.55781C3.46053 6.675 3.39461 6.83398 3.39455 6.99978C3.39449 7.16557 3.4603 7.3246 3.57749 7.44187L4.81812 8.68188C4.93532 8.79904 5.09426 8.86487 5.25999 8.86487C5.42572 8.86487 5.58466 8.79904 5.70187 8.68188L8.80187 5.58187V5.58125Z" fill="#44C915"/>
</svg>
