<svg width="20" height="20" viewBox="0 0 20 20" fill="none" xmlns="http://www.w3.org/2000/svg">
<path fill-rule="evenodd" clip-rule="evenodd" d="M17.8796 4.51339C17.9587 4.63357 17.994 4.77738 17.9794 4.92055C17.9649 5.06372 17.9013 5.19748 17.7996 5.29923L10.1387 12.9592C10.0604 13.0375 9.96258 13.0936 9.8554 13.1217L6.66457 13.9551C6.55909 13.9826 6.44826 13.982 6.34306 13.9535C6.23787 13.9249 6.14197 13.8693 6.06489 13.7922C5.98782 13.7152 5.93224 13.6193 5.90368 13.5141C5.87511 13.4089 5.87456 13.298 5.90207 13.1926L6.7354 10.0026C6.76032 9.90703 6.80614 9.81822 6.86957 9.74256L14.5587 2.05839C14.6759 1.94135 14.8348 1.87561 15.0004 1.87561C15.166 1.87561 15.3249 1.94135 15.4421 2.05839L17.7996 4.41506C17.8287 4.44576 17.8554 4.47863 17.8796 4.51339ZM16.4737 4.85673L15.0004 3.38423L7.90207 10.4826L7.38123 12.4767L9.3754 11.9559L16.4737 4.85673Z" fill="#2C2C2C"/>
<path d="M16.3672 14.2999C16.595 12.3532 16.6677 10.3915 16.5847 8.43328C16.5827 8.38712 16.5904 8.34107 16.6072 8.29803C16.624 8.25499 16.6495 8.21592 16.6822 8.18328L17.5022 7.36328C17.5246 7.34074 17.553 7.32516 17.5841 7.3184C17.6151 7.31163 17.6475 7.31398 17.6772 7.32516C17.707 7.33634 17.7329 7.35587 17.7518 7.3814C17.7707 7.40694 17.7818 7.4374 17.7839 7.46911C17.9378 9.79515 17.8792 12.1304 17.6089 14.4458C17.4122 16.1308 16.0589 17.4516 14.3814 17.6391C11.4691 17.9614 8.53024 17.9614 5.61802 17.6391C3.94135 17.4516 2.58719 16.1308 2.39052 14.4458C2.04561 11.4919 2.04561 8.50796 2.39052 5.55411C2.58719 3.86911 3.94052 2.54828 5.61802 2.36078C7.82839 2.11665 10.0553 2.05728 12.2755 2.18328C12.3073 2.18556 12.3377 2.1969 12.3633 2.21595C12.3888 2.23501 12.4083 2.26098 12.4196 2.29079C12.4308 2.32061 12.4332 2.35301 12.4266 2.38417C12.42 2.41533 12.4046 2.44394 12.3822 2.46661L11.5547 3.29328C11.5223 3.32565 11.4837 3.35101 11.4411 3.36778C11.3985 3.38456 11.3529 3.39238 11.3072 3.39078C9.45448 3.32732 7.59961 3.39834 5.75719 3.60328C5.2188 3.66287 4.71623 3.90221 4.33065 4.28265C3.94507 4.66309 3.699 5.16241 3.63219 5.69994C3.2979 8.55686 3.2979 11.443 3.63219 14.2999C3.699 14.8375 3.94507 15.3368 4.33065 15.7172C4.71623 16.0977 5.2188 16.337 5.75719 16.3966C8.55302 16.7091 11.4464 16.7091 14.243 16.3966C14.7814 16.337 15.284 16.0977 15.6696 15.7172C16.0551 15.3368 16.3004 14.8375 16.3672 14.2999Z" fill="#2C2C2C"/>
</svg>
