<svg width="21" height="21" viewBox="0 0 21 21" fill="none" xmlns="http://www.w3.org/2000/svg">
<path d="M10.5714 0.714355C5.22788 0.714355 0.714294 5.22794 0.714294 10.5715C0.714294 15.9151 5.22788 20.4286 10.5714 20.4286C15.915 20.4286 20.4286 15.9151 20.4286 10.5715C20.4286 5.22794 15.915 0.714355 10.5714 0.714355ZM10.5714 5.64293C12.2738 5.64293 13.5286 6.89676 13.5286 8.60007C13.5286 10.3034 12.2738 11.5572 10.5714 11.5572C8.87009 11.5572 7.61429 10.3034 7.61429 8.60007C7.61429 6.89676 8.87009 5.64293 10.5714 5.64293ZM5.53838 15.2753C6.42257 13.9742 7.89719 13.1068 9.58572 13.1068H11.5572C13.2467 13.1068 14.7203 13.9742 15.6045 15.2753C14.3448 16.6238 12.5577 17.4715 10.5714 17.4715C8.58522 17.4715 6.79812 16.6238 5.53838 15.2753Z" fill="#D1D1D6"/>
</svg>
