<svg width="15" height="15" viewBox="0 0 15 15" fill="none" xmlns="http://www.w3.org/2000/svg">
<path d="M2.33329 2.75668C2.33335 2.50339 2.42162 2.25803 2.58292 2.06275C2.74423 1.86747 2.96851 1.73446 3.21723 1.68658C3.46596 1.6387 3.72359 1.67893 3.94587 1.80036C4.16815 1.92179 4.3412 2.11685 4.43529 2.35201L4.53129 2.59068C4.12045 2.89151 3.80181 3.30112 3.61129 3.77334C3.34087 4.43643 3.3361 5.17817 3.59796 5.84468C3.62257 5.90699 3.65945 5.96371 3.70641 6.01149C3.75337 6.05927 3.80945 6.09713 3.87132 6.12281C3.9332 6.14849 3.9996 6.16148 4.06659 6.161C4.13358 6.16052 4.19979 6.14658 4.26129 6.12001L8.23463 4.40934C8.35391 4.35807 8.44857 4.26241 8.49859 4.1426C8.5486 4.02278 8.55005 3.88821 8.50263 3.76734C8.37564 3.43932 8.18454 3.1399 7.94049 2.88658C7.69645 2.63327 7.40436 2.43114 7.08129 2.29201C6.56241 2.06919 5.98441 2.02419 5.43729 2.16401L5.36396 1.98068C5.18364 1.52962 4.85182 1.15546 4.42555 0.922504C3.99929 0.689552 3.50518 0.612361 3.02817 0.704196C2.55116 0.796032 2.12104 1.05116 1.81173 1.42573C1.50243 1.80029 1.33325 2.27091 1.33329 2.75668V7.33334H1.16663C1.03402 7.33334 0.906841 7.38602 0.813073 7.47979C0.719304 7.57356 0.666626 7.70073 0.666626 7.83334C0.666626 7.96595 0.719304 8.09313 0.813073 8.1869C0.906841 8.28066 1.03402 8.33334 1.16663 8.33334H1.33329V8.57001C1.33329 8.82001 1.33329 8.96668 1.34396 9.13001C1.43863 10.6213 2.24396 11.998 3.41196 12.898L3.38596 12.9433L2.71929 14.2767C2.66128 14.3952 2.65245 14.5318 2.69473 14.6568C2.73702 14.7817 2.82698 14.8849 2.94502 14.9439C3.06306 15.0028 3.19961 15.0127 3.32491 14.9714C3.45022 14.9301 3.55411 14.8409 3.61396 14.7233L4.25929 13.4333C4.79664 13.707 5.37961 13.8799 5.97929 13.9433C6.14263 13.96 6.24196 13.9633 6.41129 13.97H6.41596C6.90929 13.9887 7.39196 14 7.83329 14C8.27463 14 8.75729 13.9887 9.25063 13.97H9.25529C9.42463 13.9633 9.52463 13.96 9.68729 13.9433C10.287 13.8799 10.8699 13.707 11.4073 13.4333L12.0526 14.724C12.082 14.7828 12.1227 14.8351 12.1723 14.8782C12.2219 14.9212 12.2795 14.954 12.3418 14.9748C12.4041 14.9956 12.4699 15.0039 12.5354 14.9992C12.6009 14.9946 12.6649 14.977 12.7236 14.9477C12.7824 14.9183 12.8348 14.8776 12.8778 14.828C12.9208 14.7784 12.9537 14.7208 12.9744 14.6585C12.9952 14.5962 13.0035 14.5304 12.9988 14.4649C12.9942 14.3994 12.9767 14.3354 12.9473 14.2767L12.2806 12.9433L12.2553 12.898C13.4226 11.998 14.2286 10.6207 14.3233 9.13001C14.3333 8.96668 14.3333 8.82001 14.3333 8.57001V8.54468C14.3333 8.50468 14.3333 8.46268 14.3306 8.42468C14.3286 8.39413 14.3255 8.36367 14.3213 8.33334H14.5C14.6326 8.33334 14.7597 8.28066 14.8535 8.1869C14.9473 8.09313 15 7.96595 15 7.83334C15 7.70073 14.9473 7.57356 14.8535 7.47979C14.7597 7.38602 14.6326 7.33334 14.5 7.33334H2.33329V2.75668Z" fill="#2C2C2C"/>
</svg>
