<svg width="16" height="16" viewBox="0 0 16 16" fill="none" xmlns="http://www.w3.org/2000/svg">
<path d="M12 5.33333C12 5.68696 11.8595 6.02609 11.6095 6.27614C11.3594 6.52619 11.0203 6.66667 10.6666 6.66667C10.313 6.66667 9.97389 6.52619 9.72384 6.27614C9.47379 6.02609 9.33331 5.68696 9.33331 5.33333C9.33331 4.97971 9.47379 4.64057 9.72384 4.39052C9.97389 4.14048 10.313 4 10.6666 4C11.0203 4 11.3594 4.14048 11.6095 4.39052C11.8595 4.64057 12 4.97971 12 5.33333Z" fill="#2C2C2C"/>
<path fill-rule="evenodd" clip-rule="evenodd" d="M7.96198 0.83343H8.03798C9.57731 0.83343 10.7833 0.83343 11.7246 0.960097C12.6873 1.08943 13.4473 1.3601 14.044 1.9561C14.6406 2.55276 14.9106 3.31276 15.04 4.2761C15.1666 5.21676 15.1666 6.42276 15.1666 7.9621V8.02076C15.1666 9.29343 15.1666 10.3348 15.0973 11.1828C15.028 12.0361 14.886 12.7474 14.5673 13.3394C14.4278 13.5999 14.2533 13.8348 14.044 14.0441C13.4473 14.6408 12.6873 14.9108 11.724 15.0401C10.7833 15.1668 9.57731 15.1668 8.03798 15.1668H7.96198C6.42265 15.1668 5.21665 15.1668 4.27531 15.0401C3.31265 14.9108 2.55265 14.6401 1.95598 14.0441C1.42731 13.5154 1.15398 12.8574 1.00931 12.0401C0.86598 11.2381 0.83998 10.2401 0.834646 9.00143C0.833757 8.68588 0.833313 8.3521 0.833313 8.0001V7.96143C0.833313 6.4221 0.833313 5.2161 0.95998 4.27476C1.08931 3.3121 1.35998 2.5521 1.95598 1.95543C2.55265 1.35876 3.31265 1.08876 4.27598 0.95943C5.21665 0.832764 6.42265 0.832764 7.96198 0.832764M4.40865 1.9501C3.55665 2.06476 3.04265 2.28343 2.66331 2.66276C2.28331 3.04276 2.06531 3.5561 1.95065 4.40876C1.83465 5.27543 1.83331 6.4141 1.83331 7.99943V8.5621L2.50065 7.9781C2.79336 7.72186 3.17253 7.58647 3.56133 7.59935C3.95014 7.61222 4.31952 7.7724 4.59465 8.04743L7.45465 10.9074C7.67658 11.1293 7.96968 11.2658 8.28235 11.2929C8.59501 11.32 8.90721 11.2359 9.16398 11.0554L9.36265 10.9154C9.7331 10.6551 10.1809 10.5282 10.6329 10.5555C11.0848 10.5827 11.5141 10.7625 11.8506 11.0654L13.7373 12.7634C13.928 12.3648 14.0406 11.8408 14.1006 11.1014C14.166 10.2981 14.1666 9.29676 14.1666 7.99943C14.1666 6.4141 14.1653 5.27543 14.0493 4.40876C13.9346 3.5561 13.716 3.0421 13.3366 2.6621C12.9566 2.28276 12.4433 2.06476 11.5906 1.9501C10.724 1.8341 9.58531 1.83276 7.99998 1.83276C6.41465 1.83276 5.27531 1.8341 4.40865 1.9501Z" fill="#2C2C2C"/>
</svg>
