<svg width="16" height="16" viewBox="0 0 16 16" fill="none" xmlns="http://www.w3.org/2000/svg">
<path d="M9.88669 7.44659C10.3858 7.94763 10.666 8.62603 10.666 9.33325C10.666 10.0405 10.3858 10.7189 9.88669 11.2199C9.38564 11.719 8.70724 11.9993 8.00002 11.9993C7.2928 11.9993 6.6144 11.719 6.11335 11.2199L9.88669 7.44659ZM4.00002 1.33325H12C12.3536 1.33325 12.6928 1.47373 12.9428 1.72378C13.1929 1.97382 13.3334 2.31296 13.3334 2.66659V13.3333C13.3334 13.6869 13.1929 14.026 12.9428 14.2761C12.6928 14.5261 12.3536 14.6666 12 14.6666H4.00002C3.6464 14.6666 3.30726 14.5261 3.05721 14.2761C2.80716 14.026 2.66669 13.6869 2.66669 13.3333V2.66659C2.66669 2.31296 2.80716 1.97382 3.05721 1.72378C3.30726 1.47373 3.6464 1.33325 4.00002 1.33325ZM4.66669 2.66659C4.48988 2.66659 4.32031 2.73682 4.19528 2.86185C4.07026 2.98687 4.00002 3.15644 4.00002 3.33325C4.00002 3.51006 4.07026 3.67963 4.19528 3.80466C4.32031 3.92968 4.48988 3.99992 4.66669 3.99992C4.8435 3.99992 5.01307 3.92968 5.13809 3.80466C5.26312 3.67963 5.33335 3.51006 5.33335 3.33325C5.33335 3.15644 5.26312 2.98687 5.13809 2.86185C5.01307 2.73682 4.8435 2.66659 4.66669 2.66659ZM6.66669 2.66659C6.48988 2.66659 6.32031 2.73682 6.19528 2.86185C6.07026 2.98687 6.00002 3.15644 6.00002 3.33325C6.00002 3.51006 6.07026 3.67963 6.19528 3.80466C6.32031 3.92968 6.48988 3.99992 6.66669 3.99992C6.8435 3.99992 7.01307 3.92968 7.13809 3.80466C7.26312 3.67963 7.33335 3.51006 7.33335 3.33325C7.33335 3.15644 7.26312 2.98687 7.13809 2.86185C7.01307 2.73682 6.8435 2.66659 6.66669 2.66659ZM8.00002 5.33325C6.93915 5.33325 5.92174 5.75468 5.17159 6.50482C4.42145 7.25497 4.00002 8.27239 4.00002 9.33325C4.00002 10.3941 4.42145 11.4115 5.17159 12.1617C5.92174 12.9118 6.93915 13.3333 8.00002 13.3333C9.06089 13.3333 10.0783 12.9118 10.8284 12.1617C11.5786 11.4115 12 10.3941 12 9.33325C12 8.27239 11.5786 7.25497 10.8284 6.50482C10.0783 5.75468 9.06089 5.33325 8.00002 5.33325Z" fill="#2C2C2C"/>
</svg>
