<svg width="16" height="16" viewBox="0 0 16 16" fill="none" xmlns="http://www.w3.org/2000/svg">
<path d="M3.33331 13.3333C3.33331 13.687 3.47379 14.0261 3.72384 14.2761C3.97389 14.5262 4.31302 14.6667 4.66665 14.6667C5.02027 14.6667 5.35941 14.5262 5.60945 14.2761C5.8595 14.0261 5.99998 13.687 5.99998 13.3333C5.99998 12.9797 5.8595 12.6406 5.60945 12.3905C5.35941 12.1405 5.02027 12 4.66665 12C4.31302 12 3.97389 12.1405 3.72384 12.3905C3.47379 12.6406 3.33331 12.9797 3.33331 13.3333ZM9.99998 13.3333C9.99998 13.687 10.1405 14.0261 10.3905 14.2761C10.6406 14.5262 10.9797 14.6667 11.3333 14.6667C11.6869 14.6667 12.0261 14.5262 12.2761 14.2761C12.5262 14.0261 12.6666 13.687 12.6666 13.3333C12.6666 12.9797 12.5262 12.6406 12.2761 12.3905C12.0261 12.1405 11.6869 12 11.3333 12C10.9797 12 10.6406 12.1405 10.3905 12.3905C10.1405 12.6406 9.99998 12.9797 9.99998 13.3333Z" stroke="#2C2C2C" stroke-linecap="round" stroke-linejoin="round"/>
<path d="M3.33333 13.3334H2V9.33337M2 9.33337L3.33333 6.00004H9.33333L12 9.33337M2 9.33337H12M12 9.33337H12.6667C13.0203 9.33337 13.3594 9.47385 13.6095 9.7239C13.8595 9.97395 14 10.3131 14 10.6667V13.3334H12.6667M10 13.3334H6M8 9.33337V6.00004M2 4.00004L8 1.33337L14 4.00004" stroke="#2C2C2C" stroke-linecap="round" stroke-linejoin="round"/>
</svg>
