<svg width="20" height="20" viewBox="0 0 20 20" fill="none" xmlns="http://www.w3.org/2000/svg">
<path d="M5.0001 3.00004C3.85081 2.99928 2.73635 3.39448 1.8443 4.11912C0.952238 4.84375 0.337048 5.85358 0.102271 6.97863C-0.132506 8.10368 0.0274635 9.27527 0.555255 10.2962C1.08305 11.3171 1.94643 12.1251 3.0001 12.584V15.25H17.0001V12.584C18.1114 12.0991 19.0087 11.2269 19.5249 10.1298C20.0412 9.03269 20.1413 7.78538 19.8066 6.61999C19.4719 5.4546 18.7252 4.45049 17.7054 3.79452C16.6857 3.13855 15.4624 2.8754 14.2631 3.05404C13.9607 2.16335 13.3869 1.38975 12.6223 0.841882C11.8577 0.294012 10.9407 -0.000610352 10.0001 -0.000610352C9.05948 -0.000610352 8.14248 0.294012 7.37789 0.841882C6.61329 1.38975 6.0395 2.16335 5.7371 3.05404C5.4931 3.01788 5.24676 2.99983 5.0001 3.00004ZM16.9981 16.75H3.0021C3.0121 18.147 3.0831 18.912 3.5861 19.414C4.1721 20 5.1141 20 7.0001 20H13.0001C14.8861 20 15.8281 20 16.4141 19.414C16.9171 18.912 16.9881 18.147 16.9981 16.75Z" fill="black"/>
</svg>
