<svg width="22" height="20" viewBox="0 0 22 20" fill="none" xmlns="http://www.w3.org/2000/svg">
<path d="M0.245605 9.93079C0.245605 10.3728 0.595248 10.6399 1.02818 10.6399C1.29532 10.6399 1.50707 10.511 1.69132 10.3268L10.6779 2.14122C10.7789 2.03986 10.8897 2.00293 11.0091 2.00293C11.1199 2.00293 11.2212 2.03986 11.3312 2.14122L20.3088 10.3268C20.5021 10.511 20.7139 10.6399 20.972 10.6399C21.4045 10.6399 21.7545 10.3728 21.7545 9.93079C21.7545 9.65461 21.6532 9.47979 21.4784 9.32304L18.2923 6.42297V0.981109C18.2923 0.576074 18.0346 0.318359 17.6295 0.318359H16.4235C16.0275 0.318359 15.7513 0.576074 15.7513 0.981109V4.11179L12.1048 0.778395C11.7826 0.474717 11.3866 0.327788 11.0001 0.327788C10.6131 0.327788 10.2265 0.475109 9.89496 0.778788L0.521784 9.32304C0.355998 9.47979 0.245605 9.65461 0.245605 9.93079ZM2.87893 17.6559C2.87893 18.9359 3.65246 19.6819 4.95046 19.6819H8.67986V13.1349C8.67986 12.7114 8.96507 12.4356 9.38857 12.4356H12.6391C13.0626 12.4356 13.3387 12.7114 13.3387 13.1349V19.6819H17.0587C18.3567 19.6819 19.1212 18.9359 19.1212 17.6559V10.9161L11.3037 3.87215C11.2024 3.78022 11.092 3.73425 10.9816 3.73425C10.8802 3.73425 10.7789 3.78022 10.6685 3.88157L2.87893 10.962V17.6559Z" fill="#2C2C2C"/>
</svg>
